<svg width="116" height="21" viewBox="0 0 116 21" fill="none" xmlns="http://www.w3.org/2000/svg">
<g clip-path="url(#clip0_2_702)">
<path opacity="0.983" fill-rule="evenodd" clip-rule="evenodd" d="M47.4958 -0.0326233C48.2091 -0.0326233 48.9223 -0.0326233 49.6355 -0.0326233C52.4821 0.384416 54.5354 1.89529 55.7954 4.49999C54.6607 5.16303 53.526 5.82607 52.3913 6.48912C51.1917 4.09784 49.3438 3.36958 46.8474 4.30433C45.9089 5.02197 45.7251 5.9024 46.2963 6.94564C46.4823 7.15459 46.6876 7.33935 46.9122 7.49999C47.4155 7.77481 47.9342 8.01396 48.4684 8.21738C50.0226 8.70944 51.5571 9.2529 53.0721 9.84781C55.6956 11.1578 56.7438 13.2774 56.2169 16.2065C55.8207 17.975 54.8157 19.2685 53.2018 20.0869C52.2473 20.5441 51.253 20.8375 50.2191 20.9674C49.4194 20.9674 48.6197 20.9674 47.82 20.9674C45.4307 20.7279 43.4963 19.6627 42.0168 17.7717C41.6564 17.2208 41.3647 16.6339 41.1414 16.0109C41.2197 15.8837 41.3277 15.7859 41.4656 15.7174C42.4922 15.1195 43.5189 14.5217 44.5456 13.9239C45.3682 16.0023 46.9028 17.0458 49.1492 17.0543C50.0545 17.0727 50.8867 16.8444 51.6456 16.3696C52.3365 15.679 52.4769 14.8856 52.0671 13.9891C51.6837 13.4966 51.1974 13.1379 50.6082 12.913C49.329 12.4262 48.0322 11.9914 46.7177 11.6087C45.6371 11.2066 44.6212 10.6848 43.6702 10.0435C42.4649 8.96281 41.8814 7.60414 41.9195 5.96738C41.9905 3.31368 43.2441 1.47672 45.6803 0.456507C46.2828 0.25078 46.8881 0.0877367 47.4958 -0.0326233Z" fill="#FEFFFE"/>
<path opacity="0.986" fill-rule="evenodd" clip-rule="evenodd" d="M-0.0324249 20.5761C-0.0324249 20.5109 -0.0324249 20.4457 -0.0324249 20.3804C2.31263 13.7396 4.64689 7.08744 6.97037 0.423921C7.80247 0.402182 8.63464 0.380443 9.46674 0.358704C10.3241 0.359332 11.1671 0.402811 11.9955 0.489138C14.3389 7.17973 16.6624 13.8754 18.9659 20.5761C17.5172 20.5978 16.069 20.5761 14.6216 20.5109C14.1089 18.9803 13.5793 17.4585 13.033 15.9457C10.3958 16.6985 7.74813 17.4159 5.08999 18.0978C4.85706 18.9094 4.59769 19.7138 4.3119 20.5109C2.86444 20.5761 1.41633 20.5978 -0.0324249 20.5761ZM9.43432 5.11957C10.2664 7.49962 11.0877 9.89094 11.8983 12.2935C11.7496 12.4081 11.5767 12.4842 11.3795 12.5217C9.79859 12.9356 8.22076 13.3595 6.64617 13.7935C6.62457 13.7718 6.60292 13.75 6.58133 13.7283C7.5459 10.8612 8.49691 7.99168 9.43432 5.11957Z" fill="#FEFFFE"/>
<path opacity="0.987" fill-rule="evenodd" clip-rule="evenodd" d="M22.0134 0.3587C23.0667 0.33752 24.115 0.359259 25.1582 0.423917C27.952 4.45708 30.7618 8.47879 33.5875 12.4891C33.6199 8.44572 33.6307 4.40224 33.6199 0.3587C34.96 0.3587 36.3 0.3587 37.64 0.3587C37.64 7.09781 37.64 13.837 37.64 20.5761C36.6017 20.5978 35.5642 20.576 34.5277 20.5109C31.6945 16.4764 28.8739 12.4329 26.066 8.38044C26.0335 12.4456 26.0227 16.5108 26.0335 20.5761C24.6935 20.5761 23.3535 20.5761 22.0134 20.5761C22.0134 13.837 22.0134 7.09781 22.0134 0.3587Z" fill="#FEFFFE"/>
<path opacity="0.986" fill-rule="evenodd" clip-rule="evenodd" d="M64.9379 0.358704C66.6024 0.358704 68.2662 0.358704 69.9307 0.358704C72.252 7.1027 74.5862 13.8419 76.9335 20.5761C75.4849 20.587 74.037 20.5761 72.5891 20.5435C72.073 19.0071 71.5433 17.4745 71.0006 15.9457C68.3868 16.6627 65.7718 17.3801 63.1548 18.0978C62.794 18.8928 62.5022 19.7189 62.2795 20.5761C60.8314 20.5761 59.3832 20.5761 57.9352 20.5761C60.2306 13.8238 62.5648 7.0847 64.9379 0.358704ZM67.4019 5.11957C68.2409 7.50914 69.0618 9.91129 69.8658 12.3261C68.1242 12.8338 66.3735 13.3229 64.6137 13.7935C64.5921 13.7609 64.5705 13.7283 64.5489 13.6957C65.4943 10.833 66.4448 7.97433 67.4019 5.11957Z" fill="#FEFFFE"/>
<path opacity="0.986" fill-rule="evenodd" clip-rule="evenodd" d="M79.981 0.35869C82.9637 0.347821 85.9463 0.358691 88.929 0.391299C91.6063 0.82341 93.4328 2.31254 94.408 4.85869C95.3113 8.47291 94.1545 11.1903 90.9391 13.0109C92.4038 15.5001 93.8517 18.0002 95.2834 20.5109C93.8355 20.5978 92.387 20.5978 90.9391 20.5109C89.604 18.239 88.2858 15.9563 86.9838 13.663C85.9904 13.5979 84.9964 13.5761 84.0011 13.5978C84.0011 15.9239 84.0011 18.25 84.0011 20.5761C82.6609 20.5761 81.3213 20.5761 79.981 20.5761C79.981 13.837 79.981 7.0978 79.981 0.35869ZM84.0011 4.1413C85.4925 4.13043 86.9838 4.1413 88.4751 4.17391C89.6293 4.46508 90.3529 5.19333 90.6473 6.35869C90.8891 7.8478 90.3814 8.9891 89.1235 9.7826C88.9348 9.86647 88.7403 9.93169 88.54 9.97826C87.0272 10.0109 85.5145 10.0218 84.0011 10.0109C84.0011 8.05434 84.0011 6.09782 84.0011 4.1413Z" fill="#FEFFFE"/>
<path opacity="0.986" fill-rule="evenodd" clip-rule="evenodd" d="M115.968 20.3804C115.968 20.4457 115.968 20.5109 115.968 20.5761C114.519 20.587 113.071 20.5761 111.623 20.5435C111.107 19.0071 110.577 17.4745 110.035 15.9457C107.421 16.6627 104.806 17.38 102.189 18.0978C101.828 18.8928 101.537 19.7189 101.314 20.5761C99.8657 20.5761 98.4172 20.5761 96.9693 20.5761C99.2594 13.8499 101.583 7.1325 103.94 0.423914C105.61 0.359042 107.285 0.337303 108.965 0.358697C111.249 7.05639 113.583 13.7303 115.968 20.3804ZM106.436 5.11957C107.275 7.50913 108.096 9.91128 108.9 12.3261C107.158 12.8338 105.408 13.3229 103.648 13.7935C103.626 13.7609 103.604 13.7283 103.583 13.6957C104.528 10.833 105.479 7.97433 106.436 5.11957Z" fill="#FEFFFE"/>
</g>
<defs>
<clipPath id="clip0_2_702">
<rect width="116" height="21" fill="white"/>
</clipPath>
</defs>
</svg>
